<svg width="112" height="37" viewBox="0 0 112 37" fill="none" xmlns="http://www.w3.org/2000/svg">
<path d="M13.756 0H14.7493C18.1975 0.075763 21.5896 1.47738 24.0258 3.95862C23.1263 4.88671 22.208 5.77693 21.3272 6.70503C19.9591 5.45494 18.31 4.48896 16.5109 4.14802C13.8498 3.5798 10.9825 4.0912 8.75234 5.6254C6.31608 7.23537 4.66692 9.96284 4.31085 12.8797C3.9173 15.7587 4.72314 18.7892 6.57845 21.0242C8.35879 23.2024 11.0762 24.5662 13.8872 24.6609C16.5109 24.8124 19.247 23.9979 21.1585 22.1417C22.6578 20.8348 23.3512 18.846 23.5761 16.9141C20.4651 16.9141 17.3542 16.933 14.2433 16.9141V13.0123H27.3429C28.0175 17.1982 27.043 21.9144 23.8946 24.9071C21.7957 27.0285 18.8909 28.2785 15.9299 28.5248C13.0627 28.8089 10.1017 28.2596 7.55295 26.858C4.49826 25.2101 2.062 22.4258 0.862607 19.1491C-0.261821 16.1375 -0.280562 12.7282 0.768905 9.69766C1.72467 6.93232 3.56123 4.48896 5.92253 2.78429C8.19013 1.09856 10.945 0.170467 13.756 0Z" fill="#AAAAAA"/>
<path d="M88.9058 0.985107H92.9162V28.0325C91.5856 28.0325 90.2363 28.0514 88.9058 28.0135C88.9245 19.0167 88.9058 10.0009 88.9058 0.985107V0.985107Z" fill="#AAAAAA"/>
<path d="M36.2628 10.3606C38.7366 9.88713 41.4165 10.4175 43.4592 11.9138C45.3145 13.2396 46.6076 15.3231 47.0011 17.596C47.5071 20.2287 46.87 23.1077 45.1833 25.1911C43.3655 27.5208 40.3857 28.7709 37.481 28.5815C34.8198 28.43 32.2336 27.0852 30.6594 24.8881C28.8791 22.4637 28.4481 19.1301 29.4226 16.2891C30.3971 13.2396 33.1519 10.9099 36.2628 10.3606V10.3606ZM36.8251 13.9594C35.8131 14.2245 34.876 14.8117 34.2014 15.6451C32.3836 17.8422 32.496 21.422 34.5012 23.4675C35.6444 24.6419 37.3685 25.1911 38.9615 24.8691C40.442 24.604 41.7351 23.6001 42.4472 22.2743C43.6841 20.0204 43.328 16.9141 41.4352 15.1526C40.2171 14.0162 38.4367 13.5427 36.8251 13.9594Z" fill="#AAAAAA"/>
<path d="M56.1262 10.3606C58.956 9.81129 62.0482 10.6068 64.1659 12.6145C67.6141 15.7398 67.9889 21.5925 65.0467 25.1912C63.2663 27.4641 60.3803 28.7142 57.5317 28.5816C54.8144 28.5058 52.1345 27.1421 50.5228 24.8882C48.705 22.4069 48.3114 18.9976 49.3422 16.0996C50.3729 13.1449 53.0715 10.8909 56.1262 10.3606V10.3606ZM56.6884 13.9593C55.6764 14.2245 54.7394 14.8117 54.0648 15.6261C52.2657 17.7854 52.3406 21.3083 54.2709 23.3729C55.4141 24.604 57.1944 25.2102 58.8436 24.8692C60.3053 24.5851 61.6172 23.6002 62.3293 22.2743C63.5474 20.0014 63.1914 16.8951 61.2798 15.1337C60.0617 13.9972 58.2814 13.5426 56.6884 13.9593Z" fill="#AAAAAA"/>
<path d="M72.976 11.4592C75.1311 10.0955 77.9984 9.71669 80.3223 10.891C81.0531 11.213 81.6528 11.7623 82.2338 12.3116C82.2525 11.8002 82.2338 11.2698 82.2525 10.7395C83.5081 10.7584 84.7638 10.7395 86.0381 10.7584V27.4641C86.0194 29.9833 85.3822 32.6539 83.5831 34.4911C81.6153 36.5178 78.5981 37.1428 75.8808 36.7261C72.976 36.2905 70.446 34.1502 69.3216 31.4417C70.446 30.8924 71.6267 30.4568 72.7886 29.9454C73.4445 31.4985 74.7751 32.8244 76.443 33.1274C78.1109 33.4305 80.0411 33.0138 81.1281 31.6122C82.29 30.1727 82.29 28.2028 82.2338 26.4413C81.3717 27.2937 80.3785 28.0513 79.1791 28.3354C76.5742 29.0741 73.7069 28.1649 71.7016 26.3845C69.6777 24.6041 68.4783 21.8577 68.5907 19.1302C68.6469 16.0429 70.371 13.0692 72.976 11.4592V11.4592ZM76.8553 13.8836C75.7121 14.0731 74.6439 14.717 73.913 15.6073C72.1514 17.7286 72.1514 21.119 73.9317 23.2025C74.9437 24.4336 76.5742 25.1155 78.1484 24.945C79.6289 24.7935 80.9969 23.8465 81.7278 22.5396C82.9647 20.3235 82.7585 17.3119 81.0906 15.38C80.0599 14.1867 78.4107 13.5995 76.8553 13.8836V13.8836Z" fill="#AAAAAA"/>
<path d="M97.7295 12.4253C99.9784 10.304 103.445 9.58421 106.331 10.7017C109.068 11.7435 110.81 14.3762 111.691 17.0847C107.624 18.7894 103.577 20.4751 99.5098 22.1798C100.072 23.2594 100.934 24.2443 102.096 24.6421C103.726 25.2293 105.675 25.0209 107.044 23.9223C107.587 23.5056 108.018 22.9564 108.43 22.426C109.461 23.1268 110.492 23.8087 111.522 24.5095C110.061 26.7256 107.606 28.2787 104.963 28.5249C102.04 28.8848 98.9289 27.7484 97.0361 25.4376C93.9252 21.801 94.225 15.7021 97.7295 12.4253V12.4253ZM99.7347 15.9294C99.0976 16.8575 98.8352 17.9939 98.8539 19.1114C101.571 17.975 104.289 16.8385 107.006 15.6831C106.556 14.6224 105.469 13.9785 104.364 13.808C102.583 13.486 100.728 14.452 99.7347 15.9294V15.9294Z" fill="#AAAAAA"/>
</svg>
