<svg width="126" height="29" viewBox="0 0 126 29" fill="none" xmlns="http://www.w3.org/2000/svg">
<path d="M20.9953 28.0751L12.746 27.9225C10.075 27.8694 7.39746 27.9756 4.77896 27.4251C0.795412 26.6026 0.513217 22.5699 0.217897 19.1872C-0.188989 14.4315 -0.031485 9.58958 0.736348 4.8737C1.16948 2.22723 2.87578 0.648633 5.51398 0.476181C14.4195 -0.147297 23.3841 -0.0743372 32.27 0.217504C33.2085 0.244035 34.1535 0.389955 35.0788 0.555774C39.6464 1.36497 39.758 5.93494 40.0533 9.78193C40.3487 13.6687 40.224 17.5754 39.6596 21.4357C39.2067 24.6327 38.3405 27.3123 34.6851 27.571C30.1043 27.9092 25.6286 28.1812 21.0347 28.095C21.0347 28.0751 21.0084 28.0751 20.9953 28.0751V28.0751ZM16.1455 19.9831C19.5975 17.98 22.9838 16.0101 26.4161 14.0203C22.9576 12.0172 19.5778 10.0472 16.1455 8.05742V19.9831Z" fill="#AAAAAA"/>
<path d="M106.221 24.4403C106.063 25.0903 105.926 25.601 105.788 26.1449H102.559V0.973389H106.326V10.2593C106.523 10.0073 106.621 9.90116 106.707 9.7884C107.35 8.89297 108.183 8.30929 109.259 8.08377C110.972 7.7455 112.436 8.50827 112.954 10.1731C113.289 11.2078 113.505 12.3155 113.532 13.3967C113.584 16.1758 113.545 18.9483 113.446 21.7275C113.407 22.5765 113.151 23.4454 112.83 24.2413C111.773 26.8679 108.321 27.2659 106.608 24.9908C106.503 24.8515 106.405 24.699 106.221 24.4403V24.4403ZM106.405 17.5156V22.1188C106.405 22.8683 106.798 23.326 107.54 23.4984C108.268 23.6709 108.859 23.3857 109.154 22.7025C109.279 22.4173 109.404 22.1188 109.41 21.8203C109.483 19.008 109.548 16.1957 109.568 13.3768C109.568 12.8528 109.443 12.3089 109.286 11.7981C108.99 10.8762 108.177 10.6042 107.376 11.1415C106.772 11.5527 106.405 12.1364 106.405 12.9125V17.5156ZM96.1669 8.44194H100.111V26.1582H97.0332C96.9216 25.4883 96.8101 24.7985 96.6788 23.9893C96.4688 24.301 96.3441 24.5 96.2129 24.699C95.1891 26.1914 93.7387 26.7021 92.0259 26.4301C90.5624 26.1914 89.683 25.0505 89.4861 23.1801C89.4271 22.6229 89.4008 22.0591 89.4008 21.502C89.3877 17.3564 89.4008 13.1977 89.4008 9.05216V8.42868H93.3909V9.15165C93.3909 13.1579 93.3778 17.1575 93.404 21.1637C93.404 21.7341 93.4631 22.3244 93.5616 22.8949C93.6731 23.4785 94.0931 23.6908 94.6575 23.651C95.5697 23.578 96.1997 22.8949 96.1997 21.9795V9.22462C96.1669 8.96594 96.1669 8.72715 96.1669 8.44194V8.44194ZM69.0106 8.42868H72.9745V9.17818C72.9745 13.1645 72.9613 17.1442 72.9876 21.1173C72.9876 21.6877 73.0401 22.278 73.1582 22.8352C73.3092 23.4918 73.6898 23.7041 74.3395 23.6178C75.2386 23.4918 75.7833 22.8617 75.7899 21.9397V9.25115V8.45521H79.734V26.1582H76.6693C76.5577 25.5015 76.4461 24.825 76.3017 23.9694C76.1049 24.2678 75.9933 24.4403 75.8817 24.6194C74.858 26.1383 73.4207 26.6955 71.6685 26.4235C70.2641 26.2113 69.4044 25.1633 69.1419 23.4454C69.0697 22.9081 69.0172 22.3775 69.0172 21.8402C69.0041 17.5355 69.0041 13.2109 69.0041 8.90624L69.0106 8.42868ZM66.9762 17.8871C66.9631 18.484 66.9237 19.081 66.8909 19.6779C66.7399 21.4688 66.6677 24.0092 65.2371 25.3158C64.3249 26.1383 63.1698 26.4368 61.9754 26.4766C61.4439 26.4898 60.9057 26.4898 60.3742 26.4169C57.8607 26.0322 56.6925 24.9112 56.2725 22.1188C55.7934 18.8953 55.754 15.6187 56.325 12.3951C56.9156 9.05879 58.9501 7.87815 62.1133 8.09704C65.0665 8.30929 66.3856 10.266 66.7334 13.0518C66.9237 14.6503 67.0156 16.2687 66.9762 17.8871V17.8871ZM62.9598 17.2769C62.9598 16.1426 62.9861 15.0018 62.9467 13.8676C62.9205 13.2109 62.8352 12.5477 62.6973 11.8976C62.5398 11.1481 62.0673 10.79 61.4767 10.8032C60.8992 10.8165 60.4923 11.1747 60.2823 11.8711C60.2101 12.1298 60.1313 12.3951 60.1313 12.6538C60.1313 14.4314 60.1182 16.2156 60.1051 17.9932C60.092 19.6514 59.882 21.3892 60.4004 22.9744C60.5579 23.4586 60.9648 23.724 61.4964 23.724C62.0148 23.724 62.3561 23.4653 62.5464 23.001C62.6973 22.6428 62.8286 22.2515 62.8286 21.8668C62.8745 20.3412 62.9598 18.809 62.9598 17.2769ZM50.4842 13.9405C50.832 12.2226 51.1602 10.5445 51.5211 8.85981C51.9739 6.71741 52.4793 4.57501 52.9255 2.42598C53.0371 1.90198 53.2471 1.77596 53.7393 1.78923C54.7959 1.82902 55.8722 1.80249 57.0009 1.80249C56.6334 3.16885 56.2725 4.46888 55.9181 5.74902C54.7959 9.76851 53.6737 13.8013 52.5646 17.834C52.4793 18.1458 52.4399 18.484 52.4399 18.8157C52.4268 21.0178 52.4399 23.2132 52.4399 25.4153V26.1317H48.5876C48.5745 25.9327 48.5482 25.7337 48.5482 25.5347C48.5482 24.2877 48.4498 23.0341 48.5614 21.8004C48.8435 18.8356 47.9116 16.1095 47.1569 13.3502C46.1594 9.70218 45.1488 6.04086 44.1512 2.39281C44.0987 2.22036 44.0791 2.03464 44.0266 1.82239H47.9576C48.7845 5.84851 49.6179 9.87463 50.4842 13.9405ZM125.856 18.5636H119.215C119.287 19.9101 119.313 21.1902 119.451 22.4571C119.55 23.3393 120.029 23.7173 120.783 23.724C121.571 23.7372 122.03 23.3393 122.214 22.4637C122.273 22.1785 122.313 21.8933 122.339 21.6015C122.365 21.3428 122.378 21.0642 122.398 20.6928C123.52 20.7525 124.616 20.8188 125.699 20.8652C126.329 22.7556 125.194 25.1832 123.284 25.9327C121.781 26.5296 120.239 26.5296 118.703 26.072C117.568 25.7337 116.721 25.0041 116.341 23.8831C115.986 22.8352 115.651 21.7407 115.579 20.6463C115.382 17.9468 115.31 15.2207 115.717 12.5145C115.789 12.0635 115.914 11.6323 116.052 11.1946C116.603 9.39044 117.804 8.28275 119.661 8.09704C120.672 7.99754 121.715 8.03734 122.713 8.20979C124.327 8.49501 125.187 9.66901 125.561 11.2078C125.732 11.9308 125.856 12.6737 125.883 13.4099C125.889 15.1013 125.856 16.7794 125.856 18.5636ZM122.083 16.2355C122.083 14.9023 122.096 13.6487 122.07 12.3885C122.07 12.09 121.958 11.7783 121.847 11.493C121.624 10.9359 121.158 10.7833 120.6 10.7833C120.042 10.7833 119.688 11.0685 119.55 11.5793C119.13 13.1114 119.268 14.6768 119.281 16.2488C120.285 16.2355 121.197 16.2355 122.083 16.2355V16.2355Z" fill="#AAAAAA"/>
<path d="M82.7787 5.05274H78.874V1.85571H90.5292V5.03284H86.6507V26.1319H82.7853L82.7787 5.05274Z" fill="#AAAAAA"/>
</svg>
