<svg width="135" height="34" viewBox="0 0 135 34" fill="none" xmlns="http://www.w3.org/2000/svg">
<path d="M43.5445 13.2635C43.5445 10.8444 41.1921 8.27512 37.1212 8.27512C32.5499 8.27512 27.5281 11.6285 26.7607 18.3187C25.9765 25.0756 30.1808 28.0787 34.4185 28.0787C38.6561 28.0787 40.8751 26.427 43.1441 24.2247C41.1921 21.7722 38.6728 22.9067 38.189 23.157C37.6551 23.4239 36.9711 23.791 35.5697 23.791C33.9347 23.791 32.2663 23.0569 32.2663 20.0038C42.7437 18.9694 43.5445 15.6827 43.5445 13.2635ZM38.3558 13.664C38.2891 14.4147 37.9888 15.6994 32.6834 16.4168C33.8012 12.446 35.9367 12.1457 36.921 12.1457C37.8386 12.1457 38.4226 12.8631 38.3558 13.664ZM20.6044 14.3146C20.6044 14.3146 18.3521 21.3885 18.1686 21.9724C18.1018 21.3718 16.4501 8.67553 16.4501 8.67553C12.6129 8.67553 10.5608 11.4117 9.47634 14.2979C9.47634 14.2979 6.74022 21.3885 6.50665 21.9891C6.48996 21.4386 6.08955 14.3814 6.08955 14.3814C5.85598 10.8444 2.61934 8.69221 0 8.69221L3.1699 27.9285C7.19068 27.9118 9.35956 25.1924 10.4941 22.3061C10.4941 22.3061 12.9132 16.0497 13.0133 15.7661C13.03 16.033 14.7484 27.9285 14.7484 27.9285C18.7859 27.9285 20.9547 25.3759 22.1226 22.5897L27.7784 8.69221C23.791 8.69221 21.6888 11.4117 20.6044 14.3146ZM58.3596 8.24175C55.8737 8.24175 53.9718 9.59313 52.3701 11.5785V11.5618L53.8049 0C50.5016 0 47.8155 2.8696 47.2983 7.14063L44.7957 27.7784C46.6977 27.7784 48.7164 27.2278 49.8009 25.8264C50.7685 27.0777 52.22 28.0787 54.3722 28.0787C59.9446 28.0787 63.7651 21.6054 63.7651 15.5325C63.7318 9.99354 61.0457 8.24175 58.3596 8.24175ZM57.8424 18.1686C57.2585 21.5553 55.3732 23.8577 53.5547 23.8577C51.7195 23.8577 50.9353 23.0402 50.9353 23.0402C51.2857 20.0705 51.5026 18.252 52.1699 16.6837C52.8373 15.1154 54.4222 12.6129 56.0739 12.6129C57.6923 12.6129 58.4263 14.7651 57.8424 18.1686ZM77.6793 8.69221H73.792L73.8087 8.49201C74.0756 5.95608 74.6763 4.62139 76.6616 4.4045C78.013 4.27103 78.6136 3.57031 78.7638 2.80286C78.8806 2.20225 79.2476 0.116786 79.2476 0.116786C71.4396 0.0667348 68.9871 3.43684 68.3531 8.57542L68.3365 8.69221H68.253C66.9851 8.69221 65.5836 10.127 65.3501 11.9455L65.2667 12.6129H67.8693L65.6837 30.6647L65.0164 33.9013C65.0998 33.9013 65.1999 33.918 65.2833 33.918C68.9371 33.7845 71.2728 30.8982 71.79 26.7106L73.4917 12.6129H74.7096C75.9109 12.6129 77.3123 11.4117 77.5625 9.40961L77.6793 8.69221ZM97.9 8.35854C93.4121 8.35854 89.1744 11.6619 87.8731 16.8505C86.5717 22.0392 88.5404 28.1788 95.1472 28.1788C101.737 28.1788 105.541 21.7889 105.541 16.4668C105.541 11.1781 101.954 8.35854 97.9 8.35854ZM99.7185 18.0017C99.4849 20.3541 98.4505 23.9244 95.6143 23.9244C92.7614 23.9244 93.1618 19.7535 93.4454 17.7681C93.7457 15.6493 94.9303 12.6296 97.4829 12.6296C99.7686 12.6296 99.9854 15.349 99.7185 18.0017ZM127.714 14.3146C127.714 14.3146 125.461 21.3885 125.278 21.9724C125.211 21.3718 123.56 8.67553 123.56 8.67553C119.722 8.67553 117.67 11.4117 116.586 14.2979C116.586 14.2979 113.85 21.3885 113.616 21.9891C113.599 21.4386 113.199 14.3814 113.199 14.3814C112.965 10.8444 109.729 8.69221 107.109 8.69221L110.263 27.9285C114.283 27.9118 116.452 25.1924 117.587 22.3061C117.587 22.3061 120.006 16.0497 120.089 15.7661C120.123 16.033 121.824 27.9285 121.824 27.9285C125.862 27.9285 128.031 25.3759 129.199 22.5897L134.854 8.69221C130.884 8.69221 128.782 11.4117 127.714 14.3146ZM81.3497 0.116786L78.0797 26.4937L77.4124 29.747C77.4958 29.747 77.5959 29.7637 77.6793 29.7637C81.1996 29.7137 83.7021 26.6272 84.1693 22.7399L86.0545 7.60777C86.6218 2.98638 83.869 0.116786 81.3497 0.116786Z" fill="#AAAAAA"/>
</svg>
