<svg width="142" height="35" viewBox="0 0 142 35" fill="none" xmlns="http://www.w3.org/2000/svg">
<path d="M15.1643 0.0368365C13.3377 0.243725 10.5978 1.10311 9.03894 1.96249C4.85041 4.23827 2.01607 7.78721 0.598902 12.5138C0.315468 13.4369 -0.0152048 15.9514 0.00054152 17.129C0.00054152 18.1635 0.315468 20.6939 0.504424 21.2986C0.598902 21.5851 0.803605 22.2694 0.976815 22.7946C1.26025 23.6858 2.63018 26.4868 2.86638 26.6778C2.91361 26.7255 3.16556 27.0438 3.40175 27.4098C3.98437 28.2851 5.51176 29.8447 6.66124 30.736C7.54304 31.4203 10.031 32.8685 10.3459 32.8844C10.4246 32.8844 10.4404 32.2797 10.3931 31.4839C10.2829 29.7174 10.6136 27.3143 11.3222 24.8635C11.4481 24.4497 11.5426 23.9086 11.5426 23.6699C11.5426 23.4312 11.6056 23.1766 11.6843 23.097C11.7631 23.0015 11.9048 22.54 11.9835 22.0625C12.078 21.5851 12.2354 20.853 12.3457 20.4393C12.5031 19.8186 12.4874 19.5799 12.2669 18.9115C11.952 17.8929 11.9363 16.2378 12.2512 15.4421C12.9913 13.5483 13.8101 12.8321 15.1958 12.8321C16.8649 12.8321 17.6679 14.1053 17.353 16.2378C17.2113 17.2086 16.8176 18.7364 16.5657 19.2138C16.5027 19.3571 16.3925 19.7549 16.3452 20.0891C16.2823 20.4393 16.1563 20.9326 16.0776 21.2032C15.8571 21.8238 16.2823 23.0333 16.8491 23.4949C17.3845 23.9245 18.5025 24.0519 19.526 23.8131C20.2503 23.654 20.5495 23.463 21.3053 22.731C22.2029 21.8397 22.88 20.8053 22.88 20.3119C22.88 20.1687 22.9587 19.9777 23.0532 19.8823C23.4941 19.4366 23.7303 15.9673 23.3996 14.5031C23.0374 12.8958 21.9194 11.3202 20.4708 10.3972C19.0221 9.45824 16.0303 9.18769 14.188 9.82427C12.8968 10.2699 11.7473 11.0179 11.0072 11.8932C10.3459 12.673 9.65305 13.9461 9.65305 14.3917C9.65305 14.5509 9.57432 14.7578 9.47984 14.8533C9.38536 14.9487 9.27514 15.5535 9.2279 16.206C9.14917 17.1768 9.21215 17.6224 9.49559 18.5773C9.68454 19.2298 10.031 19.9937 10.2357 20.2801C10.6608 20.853 10.6608 21.0758 10.2672 22.6036C10.1569 23.0174 9.96798 23.3994 9.85775 23.4471C8.86573 23.8291 6.8502 21.426 6.17311 19.0388C5.92117 18.1317 5.90542 14.901 6.15736 13.9461C6.26758 13.5483 6.45654 13.0072 6.58251 12.7207C6.70848 12.4502 6.81871 12.1796 6.81871 12.116C6.81871 12.0523 7.13363 11.5112 7.52729 10.9224C9.57432 7.80313 12.8968 6.14802 17.1011 6.14802C18.0616 6.14802 19.0536 6.21167 19.3213 6.29125C21.4943 6.97557 22.0769 7.19837 22.9272 7.70764C24.5806 8.71025 25.7773 10.0789 26.974 12.3706C27.0528 12.5138 27.163 12.8958 27.2102 13.2141C27.2732 13.5324 27.3834 13.8347 27.4622 13.8825C27.5409 13.9302 27.6039 14.9647 27.6039 16.1901C27.6039 18.4022 27.4464 19.2934 26.7851 21.1077C26.045 23.097 24.1397 25.2932 22.4076 26.1526C21.4156 26.63 19.5575 27.1552 18.8174 27.1552C17.8254 27.1552 15.8729 26.3276 15.3375 25.6592C15.0855 25.3569 14.8493 25.4683 14.8493 25.8979C14.8493 26.0571 14.7864 26.3276 14.6919 26.4868C14.6131 26.63 14.4714 27.0756 14.3927 27.4735C13.9361 29.5742 13.2905 31.2771 12.2984 32.8685C11.9993 33.3619 12.2512 33.6483 13.07 33.7597C13.4794 33.8234 14.0305 33.9348 14.2825 34.0144C14.9123 34.2212 18.3293 34.1894 19.4788 33.9825C20.518 33.7915 22.2029 33.3141 22.9587 32.9958C27.7141 31.0224 31.32 27.012 32.8789 21.9034C33.7135 19.182 33.7607 16.015 33.0049 12.8321C32.7529 11.7977 32.6742 11.559 31.9971 9.9675C31.0208 7.64398 28.8163 4.9226 26.5804 3.25157C24.6593 1.81926 22.7697 0.991708 19.8252 0.275554C19.0064 0.08458 16.0933 -0.0745652 15.1643 0.0368365ZM57.1598 5.78198C56.5457 5.87747 55.5694 6.896 55.3174 7.69172C55.0497 8.56702 55.3174 9.50598 56.0733 10.238C57.7424 11.8772 60.6397 10.3335 60.2775 7.97819C60.0571 6.48222 58.7029 5.52735 57.1598 5.78198ZM39.9962 6.72094C39.8545 6.88008 39.8545 26.073 40.012 26.2958C40.0907 26.4231 40.7678 26.4709 42.0905 26.455L44.0588 26.439L44.1375 23.2084C44.2005 20.5825 44.2635 19.9459 44.4525 19.8345C44.5784 19.7549 45.6492 19.6754 46.8302 19.6754C49.4126 19.6754 50.4991 19.4844 51.68 18.8478C53.2232 18.0043 54.1207 16.7948 54.6088 14.8692C54.908 13.6597 54.908 12.7844 54.5931 11.543C54.3097 10.429 54.1837 10.1585 53.5066 9.25135C52.672 8.12142 51.8217 7.50075 50.4361 7.0074C49.6645 6.75277 49.0189 6.70502 44.8461 6.65728C42.248 6.62545 40.0592 6.65728 39.9962 6.72094ZM48.641 10.6837C49.696 11.0179 50.2156 11.4953 50.4518 12.3547C50.751 13.4846 50.5305 14.535 49.8692 15.1716C49.1449 15.8559 48.4993 16.015 46.3893 16.015C45.0036 16.015 44.5784 15.9673 44.3895 15.7604C44.1848 15.5694 44.1375 15.1079 44.1375 13.2936C44.1375 10.429 44.1218 10.4449 46.3105 10.4449C47.2553 10.4449 48.1686 10.5404 48.641 10.6837ZM76.2601 9.7447C76.2601 10.8428 76.1813 11.8772 76.1026 12.0523C75.9924 12.2592 75.7719 12.3547 75.394 12.3547C75.1106 12.3547 74.8429 12.4183 74.8114 12.5138C74.7957 12.5934 74.7957 13.1504 74.8429 13.7392C74.9216 14.7896 74.9374 14.8055 75.4098 14.9169C75.6774 14.9647 75.9766 15.0602 76.0711 15.1238C76.2128 15.2034 76.2601 16.4606 76.2601 19.6435C76.2601 23.9245 76.2758 24.0837 76.6222 24.7203C77.3466 26.073 78.4803 26.5504 80.7793 26.4868L82.3224 26.439L82.3696 24.8953L82.4169 23.3357H82.0232C81.4249 23.3357 80.5431 22.8583 80.4486 22.4763C80.4013 22.2853 80.3541 20.5984 80.3541 18.7046C80.3541 16.0946 80.4014 15.2193 80.5588 15.092C80.669 14.9965 81.1099 14.901 81.5351 14.8692L82.3224 14.8214V12.4343L81.4564 12.3865C80.984 12.3547 80.5431 12.2433 80.4801 12.1478C80.4171 12.0364 80.3541 11.0019 80.3541 9.84019V7.73947H76.2601V9.7447ZM134.789 7.83495C134.726 7.89861 134.679 8.90123 134.679 10.063C134.679 12.3229 134.663 12.3547 133.797 12.3547C133.404 12.3547 133.404 12.3706 133.451 13.5801C133.498 14.7896 133.514 14.8214 133.923 14.8692C134.144 14.901 134.411 15.0124 134.49 15.1079C134.585 15.2193 134.679 17.145 134.726 19.5958C134.773 21.9511 134.852 24.0996 134.915 24.3542C135.104 25.0545 136.08 25.9457 137.009 26.2481C138.049 26.5982 140.694 26.63 140.962 26.2958C141.088 26.1526 141.135 25.5797 141.103 24.7521L141.056 23.4153L140.505 23.3198C139.907 23.2243 139.23 22.906 139.056 22.6355C138.993 22.54 138.931 20.8053 138.931 18.7841C138.931 14.6305 138.836 14.901 140.206 14.901C141.103 14.901 141.182 14.7419 141.103 13.2936L141.056 12.4343L140.033 12.3547L139.009 12.2751L138.931 10.0471L138.852 7.81904L136.868 7.7713C135.781 7.75538 134.852 7.78721 134.789 7.83495ZM68.4656 11.9727C67.6941 12.1796 66.7965 12.7048 66.1982 13.3255C65.4738 14.0894 65.2849 14.0416 65.2061 13.0708L65.1589 12.4343H61.2223V26.439L63.2063 26.4709C65.1589 26.5186 65.2061 26.5027 65.3006 26.1526C65.3478 25.9616 65.3951 23.9405 65.3951 21.6488C65.3951 17.1131 65.4108 16.9858 66.3399 16.0946C66.7493 15.6967 66.9697 15.6172 67.8515 15.5694L68.875 15.5058L69.4891 16.1583C70.2135 16.9221 70.1347 16.1901 70.1977 22.7787C70.2135 24.5293 70.2292 26.073 70.245 26.2321C70.2765 26.455 70.5284 26.4868 72.292 26.455L74.2918 26.439V15.267L73.8351 14.3599C73.0478 12.7844 71.8353 12.0364 69.9773 11.9409C69.3159 11.925 68.6388 11.925 68.4656 11.9727ZM88.1486 11.9727C86.4479 12.4343 85.6291 12.8958 84.5741 13.9461C83.157 15.3944 82.5114 17.0813 82.5114 19.3571C82.5271 23.3516 84.9993 26.3117 88.6524 26.6618C91.7702 26.9642 94.1794 26.0412 95.7225 23.9564C95.943 23.654 96.4154 22.6832 96.4154 22.5081C96.4154 22.4445 95.5021 22.3808 94.3999 22.3808H92.3843L91.9119 22.8742C91.3608 23.4471 90.5892 23.8131 89.8807 23.8131C89.1721 23.8131 88.0856 23.3039 87.5817 22.7628C87.2038 22.3331 86.6527 21.0918 86.6527 20.6621C86.6527 20.5188 87.8021 20.4711 91.5025 20.4711C94.1637 20.4711 96.4154 20.4074 96.5256 20.3438C96.7618 20.1846 96.5414 17.6542 96.1949 16.7312C95.4863 14.8055 94.1479 13.1822 92.7937 12.6093C92.4001 12.4502 91.9434 12.2433 91.786 12.1637C91.4553 11.9886 88.6524 11.8454 88.1486 11.9727ZM91.2191 15.458C91.8332 15.8877 92.3686 16.9062 92.2898 17.4792C92.2426 17.8452 92.2111 17.8452 89.55 17.8929C86.4794 17.9407 86.4637 17.9248 86.9518 16.7789C87.2983 15.9832 87.9911 15.267 88.6367 15.0601C89.3768 14.8214 90.5735 15.0124 91.2191 15.458ZM111.453 11.9727C109.627 12.4661 108.351 13.2777 107.359 14.535C106.965 15.0442 106.651 15.5217 106.651 15.6172C106.651 15.6967 106.54 15.9832 106.399 16.2537C106.257 16.5084 106.052 17.3041 105.942 18.0203C105.391 21.426 106.902 24.6089 109.737 26.0412L110.823 26.5982H113.107C115.468 26.5982 115.673 26.5504 117.122 25.7706C118.177 25.1977 119.909 22.9697 119.641 22.5241C119.578 22.4445 118.681 22.3808 117.626 22.3808H115.689L115.295 22.8424C113.721 24.6407 110.776 23.7177 110.146 21.2191C110.052 20.8849 110.052 20.5984 110.13 20.5347C110.209 20.487 112.461 20.4552 115.154 20.4711C118.996 20.4711 120.035 20.4393 120.051 20.2801C120.192 18.2908 119.248 15.3466 118.067 14.0735C117.405 13.3573 116.256 12.5616 115.689 12.4183C115.437 12.3547 115.154 12.2433 115.043 12.1637C114.823 11.9886 111.941 11.8454 111.453 11.9727ZM113.91 15.0761C114.618 15.3307 115.437 16.2219 115.563 16.9062C115.752 17.9407 115.768 17.9407 112.839 17.8929C110.209 17.8452 110.193 17.8452 110.146 17.4792C110.083 17.0336 110.634 15.9354 111.107 15.5217C111.784 14.9487 112.965 14.7578 113.91 15.0761ZM125.152 11.9727C121.924 12.7525 120.759 13.9143 120.743 16.3333C120.743 18.9433 122.035 20.0414 125.861 20.7257C128.491 21.1872 129.247 21.601 129.215 22.6036C129.199 23.3198 128.711 23.7813 127.735 23.9882C126.507 24.2587 125.546 23.9564 124.775 23.0811L124.16 22.3808H122.255C120.712 22.3808 120.35 22.4286 120.35 22.6036C120.35 23.0652 120.98 24.2747 121.499 24.8794C121.987 25.4046 122.365 25.6592 123.846 26.3754C123.987 26.455 124.759 26.5823 125.53 26.6778C126.963 26.8528 129.451 26.6937 130.081 26.3754C130.223 26.3117 130.632 26.1048 130.979 25.9457C131.876 25.516 132.726 24.5452 133.041 23.6222C133.388 22.5718 133.293 21.1077 132.805 20.0891C132.223 18.8956 130.679 18.0362 128.38 17.6224C125.42 17.0972 125.373 17.0813 124.901 16.6198C124.334 16.0309 124.334 15.824 124.901 15.1875C125.357 14.6782 125.389 14.6623 126.648 14.6623C127.908 14.6623 127.94 14.6782 128.396 15.1875C128.648 15.4739 128.853 15.8081 128.853 15.9354C128.853 16.1264 129.184 16.1742 130.821 16.1742C132.994 16.1742 132.931 16.2219 132.553 15.092C131.86 13.0867 130.081 12.0682 127.121 11.9568C126.207 11.925 125.326 11.925 125.152 11.9727ZM104.21 12.3069C103.517 12.5457 102.556 13.3414 102.257 13.9143C101.958 14.4872 101.69 14.2485 101.612 13.2936L101.533 12.4343H97.5964L97.5491 19.1184C97.5334 22.7946 97.5491 25.9616 97.5964 26.1685C97.6751 26.5186 97.7223 26.5186 99.6119 26.4868C100.698 26.4709 101.58 26.3754 101.643 26.2799C101.706 26.2003 101.769 24.5134 101.769 22.54C101.769 19.4207 101.801 18.8637 102.068 18.1635C102.619 16.7153 103.8 15.8559 105.281 15.8559C105.69 15.8559 105.863 15.7763 105.91 15.5694C106.021 15.1079 106.036 12.9594 105.942 12.482C105.847 12.1 105.769 12.0364 105.344 12.0523C105.06 12.0682 104.556 12.1796 104.21 12.3069ZM55.7111 12.5457C55.6639 12.6571 55.6481 15.7922 55.6639 19.5162L55.7111 26.2799L57.5849 26.3595C58.7186 26.4072 59.5375 26.3754 59.6634 26.2799C59.8366 26.1526 59.8839 24.7998 59.8839 19.3889C59.8996 15.6967 59.8524 12.5934 59.8051 12.5138C59.6477 12.2751 55.7898 12.3069 55.7111 12.5457Z" fill="#AAAAAA"/>
</svg>
