<svg width="137" height="27" viewBox="0 0 137 27" fill="none" xmlns="http://www.w3.org/2000/svg">
<path d="M8.66091 26.3312H3.50934V13.3517H0V9.12585H3.50921V6.11886C3.50921 2.55557 5.06133 0 10.199 0C11.2856 0 12.9915 0.221358 12.9915 0.221358V4.14529H11.1997C9.37401 4.14529 8.66118 4.70656 8.66118 6.25828V9.12585H12.9231L12.5436 13.3517H8.66104L8.66091 26.3312ZM20.4813 8.78815C20.4062 8.78815 20.329 8.79092 20.2526 8.79285C15.4757 8.79285 13.2902 12.4244 13.2902 17.5795C13.2902 24.0735 16.1251 26.6726 20.2899 26.6726C22.6727 26.6726 24.2382 25.6589 25.1898 23.7673V26.3329H30.0896V9.12765H25.1898V11.7736C24.4128 10.0713 22.8035 8.80832 20.4813 8.78815ZM21.7272 12.8537C23.7335 12.8537 24.9377 14.2681 24.9377 16.6739L24.9423 19.1311C24.9423 20.7526 23.9477 22.6496 21.7272 22.6496C18.3134 22.6496 18.4046 18.9241 18.4046 17.6833C18.4046 13.5094 20.2235 12.8537 21.7272 12.8537ZM32.0685 17.7312C32.0685 15.6405 31.9695 8.79934 40.7882 8.79934C44.3281 8.79934 45.8063 9.93695 45.8063 9.93695L44.6182 13.6612C44.6182 13.6612 43.142 12.8396 41.2184 12.8396C38.7547 12.8396 37.1826 14.2831 37.1826 16.823L37.1853 18.6441C37.1853 21.0846 38.7022 22.7137 41.2235 22.7137C42.9759 22.7137 44.591 21.8844 44.591 21.8844L45.7761 25.5308C45.7761 25.5308 44.4245 26.6756 40.8129 26.6756C32.4161 26.6756 32.0686 20.5378 32.0686 17.7312H32.0685ZM74.536 8.79285C79.313 8.79285 81.533 12.4244 81.533 17.5795C81.533 24.0735 78.6979 26.6726 74.5332 26.6726C72.1503 26.6726 70.3889 25.6591 69.4374 23.7673V26.3329L64.5992 26.331V0.523135L69.7361 0.0703317V11.5405C70.4775 9.53375 72.914 8.79285 74.5362 8.79285H74.536ZM73.0959 12.8537C71.0896 12.8537 69.7361 14.2681 69.7361 16.6739L69.7313 19.1311C69.7283 20.7526 70.6686 22.6496 73.0959 22.6496C76.5097 22.6496 76.4185 18.9241 76.4185 17.6833C76.4185 13.5094 74.5997 12.8537 73.0959 12.8537ZM54.7193 8.80708C49.3013 8.80708 46.4409 11.7927 46.4409 17.0984V18.0841C46.4409 24.9704 50.4577 26.7433 55.2466 26.7433C59.9014 26.7433 62.0083 25.4275 62.0083 25.4275L61.047 21.9233C61.047 21.9233 58.5687 22.9891 55.8625 22.9891C53.0571 22.9891 51.8506 22.2664 51.5414 19.5416H62.419V16.7304C62.419 10.9751 59.2088 8.80694 54.7192 8.80694L54.7193 8.80708ZM54.8499 12.3159C56.7253 12.3159 57.9406 13.4783 57.8739 16.174H51.5508C51.6604 13.3368 52.971 12.3161 54.8499 12.3161V12.3159ZM91.7758 8.78345C86.2119 8.78345 83.2828 11.9524 83.2828 17.6313C83.2828 25.4231 88.332 26.6773 91.7851 26.6773C96.8403 26.6773 100.203 23.9266 100.203 17.702C100.203 11.2234 96.4219 8.78345 91.7758 8.78345V8.78345ZM91.7058 12.8678C94.1523 12.8678 95.1218 14.7184 95.1218 16.8249V18.636C95.1218 21.1878 93.7653 22.6638 91.6965 22.6638C89.7617 22.6638 88.402 21.2832 88.402 18.636V16.8249C88.402 14.0017 90.02 12.8678 91.7058 12.8678V12.8678ZM110.437 8.78345C104.873 8.78345 101.944 11.9524 101.944 17.6313C101.944 25.4231 106.993 26.6773 110.446 26.6773C115.501 26.6773 118.865 23.9266 118.865 17.702C118.865 11.2234 115.083 8.78345 110.437 8.78345V8.78345ZM110.367 12.8678C112.814 12.8678 113.783 14.7184 113.783 16.8249V18.636C113.783 21.1878 112.427 22.6638 110.358 22.6638C108.423 22.6638 107.063 21.2832 107.063 18.636V16.8249C107.063 14.0017 108.681 12.8678 110.367 12.8678V12.8678ZM120.806 26.3312V0.523135L125.958 0.0703317V17.3685L131.069 9.12585H136.51L131.178 17.6628L136.715 26.3312H131.259L125.958 17.9143V26.3312H120.806Z" fill="#AAAAAA"/>
</svg>
