<svg width="42" height="42" viewBox="0 0 42 42" fill="none" xmlns="http://www.w3.org/2000/svg">
<path d="M8.73881 22.4091C11.7457 21.8937 14.8157 22.8697 16.973 25.0269V25.0269C19.1302 27.1841 20.1062 30.2542 19.5908 33.2611L18.5308 39.4451L2.5548 23.4691L8.73881 22.4091Z" fill="white"/>
<path d="M19.5905 8.73868C20.106 11.7456 19.1299 14.8156 16.9727 16.9728V16.9728C14.8155 19.1301 11.7455 20.1061 8.73855 19.5907L2.55455 18.5306L18.5305 2.55468L19.5905 8.73868Z" fill="white"/>
<path d="M33.261 19.5908C30.254 20.1062 27.184 19.1302 25.0268 16.973V16.973C22.8696 14.8157 21.8935 11.7457 22.409 8.7388L23.469 2.55479L39.445 18.5308L33.261 19.5908Z" fill="white"/>
<path d="M22.4092 33.2612C21.8938 30.2543 22.8698 27.1843 25.027 25.027V25.027C27.1843 22.8698 30.2543 21.8938 33.2612 22.4092L39.4452 23.4692L23.4692 39.4452L22.4092 33.2612Z" fill="white"/>
</svg>
